<?xml version="1.0" standalone="no"?>
<!DOCTYPE svg PUBLIC "-//W3C//DTD SVG 20010904//EN"
 "http://www.w3.org/TR/2001/REC-SVG-20010904/DTD/svg10.dtd">
<svg version="1.0" xmlns="http://www.w3.org/2000/svg"
 width="500.000000pt" height="500.000000pt" viewBox="0 0 500.000000 500.000000"
 preserveAspectRatio="xMidYMid meet">
<metadata>
Created by potrace 1.14, written by Peter Selinger 2001-2017
</metadata>
<g transform="translate(0.000000,500.000000) scale(0.100000,-0.100000)"
fill="#000000" stroke="none">
<path d="M2298 3508 c-103 -134 -280 -365 -395 -515 -114 -149 -388 -506 -608
-793 -220 -286 -408 -532 -418 -546 l-19 -24 180 0 179 0 185 243 c102 133
308 402 458 597 150 195 351 459 448 587 98 128 180 232 183 233 3 0 45 -53
95 -117 49 -64 107 -140 129 -169 22 -28 137 -177 255 -330 118 -153 253 -328
300 -389 47 -61 179 -233 295 -383 l210 -272 174 0 173 0 -28 38 c-54 72
-1386 1803 -1418 1843 -11 14 -57 74 -101 132 -44 59 -82 107 -86 107 -3 0
-89 -109 -191 -242z"/>
<path d="M2354 2473 c-71 -92 -153 -199 -183 -237 -30 -39 -143 -186 -251
-326 -108 -140 -200 -261 -204 -267 -6 -10 32 -13 173 -13 l180 0 210 275 209
275 214 -280 213 -279 173 -1 c94 0 172 3 172 7 0 6 -137 187 -450 598 -72 94
-172 225 -223 292 -50 67 -95 123 -98 123 -4 0 -65 -75 -135 -167z"/>
</g>
</svg>
